<svg width="1171" height="390" viewBox="0 0 1171 390" fill="none" xmlns="http://www.w3.org/2000/svg">
<path fill-rule="evenodd" clip-rule="evenodd" d="M171 208C197.071 314 273.271 304 290.322 296.5C290.382 296.47 290.443 296.45 290.503 296.42C264.202 334.34 225.831 367.75 171 390C116.169 367.75 77.7986 334.34 51.4981 296.42C51.558 296.45 51.6179 296.47 51.6778 296.5C68.7284 304 144.93 314 171 208ZM213.28 312.46C200.91 321.33 186.88 329.27 171 336C155.12 329.27 141.089 321.33 128.719 312.46C119.569 316.57 111.759 318.84 107.099 319.88C124.069 333.67 144.199 345.74 167.98 355.31L171 356L174.02 355.31C197.8 345.74 217.931 333.67 234.901 319.88C230.241 318.84 222.431 316.57 213.28 312.46Z" fill="#0A1A2F"/>
<path fill-rule="evenodd" clip-rule="evenodd" d="M171 0C224.641 0.000191881 315.883 37 335.433 52.5C345.503 99.2399 347.414 177.92 316.003 250.38C272.792 303.78 195.541 265.74 203.091 184H240.691L171 77L101.309 184H138.909C146.459 265.74 69.2084 303.78 25.9976 250.38C-5.41301 177.92 -3.50364 99.24 6.56654 52.5C26.1169 37 117.359 0 171 0ZM171 24C147.72 24.12 117.449 31.9397 91.5486 40.9297C78.3484 45.5097 65.9877 50.4997 55.8575 55.1797C45.9574 59.7497 37.4974 64.3199 32.5973 68.1699L29.9068 70.29L29.1871 73.6201C21.647 108.3 19.5666 163.57 37.6169 217.74C39.847 224.43 42.3874 231.11 45.2675 237.74C50.4976 243.89 59.3582 249.81 73.3784 251.34C65.9782 238.5 60.1674 225.17 55.6974 211.74C39.5071 163.18 40.7475 113.37 47.0575 81.2305C50.6576 78.9305 56.3578 75.8799 63.8479 72.4199C73.3681 68.0299 85.1483 63.2701 97.8085 58.8701C123.189 50.0601 150.98 43.13 171 43C191.021 43.1301 218.811 50.0602 244.191 58.8701C256.851 63.2701 268.632 68.0299 278.152 72.4199C285.642 75.8799 291.342 78.9305 294.942 81.2305C301.252 113.37 302.493 163.18 286.302 211.74C281.832 225.17 276.021 238.5 268.621 251.34C282.641 249.81 291.502 243.89 296.732 237.74C299.612 231.11 302.153 224.43 304.383 217.74C322.433 163.57 320.353 108.3 312.813 73.6201L312.093 70.29L309.402 68.1699C304.502 64.3199 296.042 59.7496 286.142 55.1797C276.012 50.4997 263.651 45.5097 250.451 40.9297C224.551 31.9398 194.281 24.1201 171 24Z" fill="#0A1A2F"/>
<path d="M170.717 120.898C170.806 120.62 171.201 120.62 171.289 120.898L177.937 141.791C177.977 141.915 178.093 142 178.223 142H198.163C198.445 142 198.572 142.354 198.353 142.532L182.655 155.376C182.563 155.451 182.524 155.574 182.556 155.688L188.275 176.181C188.351 176.453 188.042 176.67 187.812 176.506L171.178 164.625C171.074 164.55 170.933 164.55 170.828 164.625L154.194 176.506C153.964 176.67 153.655 176.453 153.731 176.181L159.45 155.688C159.482 155.574 159.444 155.451 159.352 155.376L143.653 142.532C143.435 142.354 143.562 142 143.844 142H163.783C163.914 142 164.03 141.915 164.07 141.791L170.717 120.898Z" fill="#0A1A2F"/>
<path d="M612.713 79.1007C613.021 79.1007 613.276 79.3562 613.276 79.6644C612.442 120.341 615.178 160.588 611.728 199.159C603.902 247.706 564.827 263.508 519.791 263.838C459.112 265.44 414.128 244 414.361 177.194C414.557 146.561 413.925 113.365 414.632 79.0706H463.637C464.862 108.689 463.622 142.554 464.096 178.863C464.096 183.005 464.321 185.891 464.75 187.508C466.516 199.069 473.605 209.932 483.475 215.434C500.367 224.666 535.435 225.087 551.056 211.202C563.151 200.107 564.805 186.207 564.309 170.045C564.219 138.059 564.196 107.839 564.241 79.3713C564.219 78.5444 612.42 79.4013 612.713 79.1007Z" fill="#0A1A2F"/>
<path d="M696.29 208.233C696.057 208.233 695.861 208.421 695.861 208.661C695.493 209.045 696.56 260.147 695.5 260.087C695.2 259.787 646.262 260.666 646.337 259.779C646.856 259.253 645.345 78.9879 646.856 79.0856C662.898 79.0405 694.748 79.0255 742.416 79.048C773.951 78.7474 802.652 79.9952 821.941 103.367C825.677 107.621 828.511 112.62 830.436 118.356C835.457 133.06 835.615 150.124 831.278 165.038C826.978 181.546 815.033 193.905 799.141 201.046C794.668 202.948 791.616 204.061 789.985 204.384C776.905 207.406 766.892 208.473 753.398 208.27C726.043 208.308 707.002 208.293 696.29 208.233ZM695.959 117.95C696.154 118.183 695.485 168.662 696.072 168.639L756.3 168.744C771.673 168.775 784.159 158.13 784.182 144.975C785.693 130.241 773.274 117.92 756.39 117.852C756.187 118.055 695.914 117.356 695.959 117.95Z" fill="#0A1A2F"/>
<path d="M861.204 79.1006H909.826C909.826 79.1006 909.465 259.516 909.826 259.771C909.909 260.704 861.505 259.764 861.204 260.087V79.1006Z" fill="#0A1A2F"/>
<path d="M1170.96 259.546C1171.08 259.771 1170.9 260.065 1170.65 260.057H1116.18C1115.91 260.057 1115.65 259.899 1115.54 259.644C1112.57 253.164 1109.47 248.044 1106.32 240.941C1105.04 238.061 1102.68 233.017 1099.25 225.808C1099.07 225.425 1098.68 225.184 1098.25 225.184C1067.36 225.447 1033.97 224.981 999.515 225.372C998.004 225.447 997.35 226.169 996.974 227.379C996.14 230.386 994.178 233.724 993.29 235.566C992.967 236.415 989.186 244.316 981.954 259.268C981.706 259.771 981.203 260.087 980.639 260.087H928.544C926.762 259.358 1019.2 79.5517 1019.95 79.0706H1077.28C1078.95 79.1683 1079.48 81.8219 1080.12 82.739C1085.23 93.8421 1094.45 110.613 1100.22 121.912C1105.43 132.594 1111.03 143.614 1116.37 153.477C1134.68 189.793 1152.01 223.117 1170.96 259.546ZM1079.41 186.613C1079.64 186.673 1079.87 186.41 1079.74 186.192C1077.17 181.246 1075.02 177.194 1073.3 174.037C1069 163.798 1063.07 153.74 1059.04 144.539C1056.55 138.893 1053.18 131.684 1048.93 122.904C1048.81 122.648 1048.5 122.543 1048.24 122.663C1041.34 135.886 1031.39 157.333 1024.11 172.315C1022.07 176.412 1020.22 181.539 1017.32 185.516C1017.16 185.711 1017.19 185.997 1017.38 186.162C1043.48 186.944 1063.33 185.839 1079.41 186.613Z" fill="#0A1A2F"/>
<path d="M801.9 308.566C802.727 301.199 809.5 295.907 817.04 296.757C824.58 297.606 830.023 304.266 829.196 311.633C828.369 319 821.596 324.292 814.056 323.443C806.516 322.594 801.074 315.933 801.9 308.566ZM814.83 301.072C809.974 301.41 806.321 305.725 806.666 310.709C807.012 315.693 811.229 319.451 816.086 319.113C820.942 318.775 824.595 314.46 824.249 309.476C823.904 304.492 819.686 300.733 814.83 301.072Z" fill="#0A1A2F"/>
<path d="M915.299 309.235C915.765 301.838 922.275 296.23 929.845 296.711C937.415 297.193 943.173 303.567 942.707 310.964C942.241 318.361 935.731 323.969 928.161 323.488C920.591 323.007 914.833 316.632 915.299 309.235ZM927.68 301.124C922.854 301.801 919.509 306.379 920.2 311.333C920.892 316.294 925.372 319.759 930.198 319.083C935.024 318.406 938.369 313.828 937.678 308.874C936.986 303.913 932.506 300.447 927.68 301.124Z" fill="#0A1A2F"/>
<path d="M629.281 310.13C629.303 318.339 639.136 322.248 644.556 316.219C644.714 316.046 644.977 316.031 645.15 316.189L647.856 318.609C647.969 318.715 647.991 318.888 647.901 319.015C644.826 323.323 638.166 324.405 633.4 322.751C628.04 320.895 624.477 316.023 624.462 310.152C624.447 304.281 627.98 299.388 633.332 297.501C638.091 295.817 644.751 296.862 647.856 301.154C647.946 301.282 647.923 301.455 647.811 301.56L645.119 303.996C644.947 304.154 644.684 304.139 644.526 303.966C639.068 297.974 629.265 301.936 629.281 310.145V310.13Z" fill="#0A1A2F"/>
<path d="M700.966 310.13C700.974 312.197 701.477 313.949 702.688 315.602C705.92 320 712.648 320.353 716.392 316.204C716.535 316.046 716.775 316.031 716.933 316.174L719.564 318.527C719.782 318.722 719.797 319.053 719.609 319.271C719.609 319.278 719.594 319.286 719.587 319.293C717.256 321.594 714.693 323.03 711.355 323.368C704.131 324.097 697.508 319.805 696.17 312.43C696.08 311.926 696.035 311.167 696.027 310.145C696.027 309.123 696.065 308.356 696.155 307.86C697.463 300.478 704.063 296.148 711.287 296.847C714.625 297.17 717.196 298.591 719.541 300.876C719.752 301.079 719.752 301.417 719.541 301.62C719.534 301.628 719.526 301.635 719.519 301.643L716.895 304.003C716.737 304.146 716.504 304.131 716.354 303.981C712.595 299.846 705.867 300.23 702.658 304.642C701.455 306.304 700.959 308.063 700.959 310.13H700.966Z" fill="#0A1A2F"/>
<path d="M1145.58 318.459C1145.84 318.692 1145.87 319.09 1145.64 319.346C1145.64 319.346 1145.63 319.361 1145.62 319.361C1142.94 322.173 1139.62 323.541 1135.67 323.466C1132.02 323.398 1129.03 322.263 1126.69 320.068C1121.47 315.159 1120.48 306.364 1125.78 301.049C1127.37 299.455 1129.6 297.922 1131.73 297.32C1136.1 296.08 1140.17 296.719 1143.94 299.237C1144.73 299.764 1145.33 300.335 1145.76 300.959C1145.9 301.162 1145.85 301.44 1145.67 301.598L1142.83 303.883C1142.71 303.981 1142.54 303.966 1142.43 303.86C1140.52 301.966 1138.33 301.041 1135.83 301.087C1131.56 301.177 1128.78 303.244 1127.49 307.281C1126.72 309.686 1127.15 312.956 1128.67 315.166C1131.04 318.602 1135.23 319.963 1139.14 318.512C1140.51 318.008 1141.61 317.204 1142.46 316.114C1142.55 315.986 1142.74 315.956 1142.88 316.061C1142.88 316.061 1142.89 316.069 1142.89 316.076L1145.57 318.467L1145.58 318.459Z" fill="#0A1A2F"/>
<path d="M535.217 297.268C535.217 297.208 535.262 297.162 535.322 297.162H547.229C554.469 297.162 560.34 302.8 560.34 309.754V310.438C560.34 317.392 554.469 323.03 547.229 323.03H535.322C535.262 323.03 535.217 322.984 535.217 322.924V297.283V297.268ZM540.05 301.688L540.141 318.451C540.141 318.609 540.276 318.745 540.434 318.745L547.057 318.715C551.672 318.692 555.393 315.016 555.371 310.506V309.491C555.341 304.98 551.574 301.342 546.966 301.365L540.344 301.395C540.178 301.395 540.05 301.53 540.05 301.688Z" fill="#0A1A2F"/>
<path d="M579.576 323.052H575.096C575.006 323.052 574.931 322.977 574.931 322.887V297.561C574.931 297.396 575.058 297.268 575.224 297.26C578.764 297.2 582.095 297.155 585.229 297.132C587.838 297.117 590.04 297.388 592.205 298.756C595.378 300.763 596.701 303.8 596.16 307.867C595.686 311.468 593.07 313.753 589.68 314.896C588.702 315.219 587.214 315.399 585.229 315.422C583.47 315.445 581.719 315.437 579.975 315.407C579.832 315.407 579.712 315.52 579.712 315.663V322.909C579.712 322.984 579.652 323.052 579.569 323.052H579.576ZM579.794 301.485V311.039C579.794 311.137 579.87 311.212 579.967 311.212H586.44C589.176 311.212 591.394 309.092 591.394 306.476V306.048C591.394 303.432 589.176 301.312 586.44 301.312H579.967C579.87 301.312 579.794 301.387 579.794 301.485Z" fill="#0A1A2F"/>
<path d="M745.341 322.939V297.328C745.341 297.26 745.401 297.2 745.468 297.2H749.37C749.407 297.2 749.445 297.223 749.468 297.253L762.984 314.099C763.029 314.152 763.111 314.159 763.164 314.114C763.194 314.091 763.209 314.054 763.209 314.016V297.335C763.209 297.268 763.269 297.208 763.337 297.208H767.998C768.065 297.208 768.125 297.268 768.125 297.335V322.872C768.125 322.939 768.065 322.999 767.998 322.999H764.186C764.149 322.999 764.111 322.977 764.089 322.947L750.392 305.875C750.347 305.822 750.264 305.815 750.212 305.86C750.182 305.883 750.167 305.92 750.167 305.958V322.939C750.167 323.007 750.107 323.067 750.039 323.067H745.461C745.393 323.067 745.333 323.007 745.333 322.939H745.341Z" fill="#0A1A2F"/>
<path d="M891.499 297.14C895.078 297.162 898.581 297.177 902.001 297.2C902.151 297.2 902.279 297.328 902.279 297.478V301.034C902.279 301.192 902.151 301.32 902.001 301.32H894.145C894.055 301.32 893.972 301.395 893.972 301.492V322.804C893.972 322.909 893.89 322.992 893.792 322.992C893.619 322.999 892.867 323.007 891.544 323.007C890.221 323.007 889.47 323.007 889.297 322.999C889.191 322.999 889.109 322.909 889.109 322.811L889.034 301.5C889.034 301.402 888.958 301.327 888.861 301.327L881.005 301.357C880.855 301.357 880.727 301.229 880.727 301.071L880.712 297.516C880.712 297.365 880.832 297.238 880.983 297.238C884.403 297.208 887.906 297.17 891.484 297.14H891.499Z" fill="#0A1A2F"/>
<path d="M956.848 311.611C954.78 309.22 952.638 306.003 952.149 305.883C952.097 305.867 952.052 305.905 952.037 305.95C952.037 305.95 952.037 305.965 952.037 305.973V322.804C952.037 322.924 951.939 323.022 951.819 323.022H947.541C947.368 323.022 947.226 322.879 947.226 322.706V297.456C947.226 297.298 947.353 297.17 947.511 297.17H950.826C951.127 297.17 951.413 297.313 951.593 297.553C954.863 301.853 957.817 305.522 960.448 308.551C962.516 310.942 964.658 314.167 965.147 314.279C965.199 314.294 965.245 314.257 965.26 314.212C965.26 314.212 965.26 314.197 965.26 314.189V297.358C965.26 297.238 965.357 297.14 965.478 297.14H969.755C969.928 297.14 970.071 297.283 970.071 297.456V322.706C970.071 322.864 969.943 322.992 969.785 322.992H966.47C966.169 322.992 965.883 322.849 965.696 322.609C962.426 318.309 959.479 314.64 956.848 311.603V311.611Z" fill="#0A1A2F"/>
<path d="M1010.52 322.789C1010.5 322.932 1010.42 323.007 1010.27 323.007C1008.76 323.06 1007.27 323.075 1005.81 323.045C1005.64 323.045 1005.49 322.939 1005.42 322.789L1003.15 317.377C1003.09 317.234 1002.94 317.136 1002.79 317.136H990.63C990.495 317.136 990.375 317.219 990.315 317.339L987.939 322.691C987.841 322.909 987.623 323.045 987.39 323.052H983.09C982.97 323.052 982.88 322.962 982.88 322.842C982.88 322.812 982.88 322.781 982.895 322.751L994.081 297.538C994.178 297.313 994.404 297.17 994.652 297.17H998.576C998.884 297.17 999.155 297.35 999.283 297.629C1006.66 314.076 1010.38 322.361 1010.45 322.488C1010.51 322.616 1010.54 322.714 1010.52 322.789ZM991.983 312.949C991.953 313.017 991.983 313.092 992.051 313.114C992.066 313.114 992.081 313.122 992.104 313.122L1001.15 313.137C1001.21 313.137 1001.27 313.084 1001.27 313.009C1001.27 312.994 1001.27 312.971 1001.27 312.956L996.764 302.522C996.734 302.455 996.659 302.432 996.591 302.462C996.561 302.477 996.546 302.5 996.531 302.522L991.991 312.941L991.983 312.949Z" fill="#0A1A2F"/>
<path d="M1091.97 322.759C1091.95 322.902 1091.87 322.977 1091.72 322.977C1090.22 323.03 1088.73 323.045 1087.26 323.015C1087.1 323.015 1086.95 322.909 1086.88 322.759L1084.61 317.362C1084.55 317.219 1084.4 317.121 1084.24 317.121H1072.12C1071.98 317.121 1071.86 317.204 1071.8 317.331L1069.43 322.676C1069.34 322.894 1069.13 323.03 1068.88 323.037H1064.59C1064.47 323.037 1064.38 322.947 1064.38 322.827C1064.38 322.797 1064.38 322.766 1064.4 322.736L1075.55 297.576C1075.64 297.35 1075.87 297.208 1076.11 297.208H1080.03C1080.33 297.208 1080.6 297.388 1080.73 297.666C1088.09 314.069 1091.81 322.338 1091.88 322.458C1091.95 322.586 1091.97 322.684 1091.96 322.759H1091.97ZM1073.55 313.017C1073.53 313.084 1073.55 313.152 1073.62 313.174C1073.64 313.174 1073.65 313.182 1073.67 313.182L1082.7 313.107C1082.77 313.107 1082.83 313.054 1082.83 312.986C1082.83 312.971 1082.83 312.949 1082.82 312.934L1078.21 302.537C1078.18 302.477 1078.11 302.447 1078.05 302.477C1078.02 302.492 1078 302.515 1077.99 302.545L1073.56 313.024L1073.55 313.017Z" fill="#0A1A2F"/>
<path d="M431.681 319.113C436.372 319.098 438.01 315.647 438.003 311.513C438.003 308.747 437.965 304.093 437.905 297.546C437.905 297.328 438.078 297.147 438.296 297.14H442.573C442.724 297.14 442.844 297.26 442.844 297.411C442.836 300.703 442.829 305.747 442.829 312.535C442.829 315.257 442.047 317.617 440.484 319.617C438.296 322.413 435.146 323.405 431.696 323.42C428.253 323.428 425.096 322.451 422.893 319.669C421.314 317.677 420.518 315.317 420.51 312.603C420.48 305.815 420.45 300.771 420.42 297.478C420.42 297.328 420.54 297.208 420.691 297.208L424.96 297.185C425.178 297.185 425.359 297.358 425.359 297.576C425.359 297.576 425.359 297.576 425.359 297.583C425.329 304.131 425.321 308.784 425.329 311.551C425.344 315.685 426.998 319.128 431.688 319.12L431.681 319.113Z" fill="#0A1A2F"/>
<path d="M453.639 305.822L453.752 322.661C453.752 322.872 453.586 323.037 453.376 323.045L449.099 323.09C448.963 323.09 448.851 322.984 448.851 322.849L448.866 297.38C448.866 297.32 448.918 297.268 448.978 297.268L452.466 297.162C452.722 297.155 452.97 297.268 453.135 297.471L466.441 314.009C466.509 314.091 466.621 314.099 466.704 314.039C466.749 314.001 466.772 313.949 466.772 313.896L466.667 297.418C466.667 297.313 466.749 297.23 466.847 297.23L471.169 297.193C471.41 297.193 471.613 297.388 471.613 297.636L471.658 322.759C471.658 322.879 471.56 322.984 471.44 322.984H467.914C467.749 322.984 467.584 322.909 467.478 322.774L453.82 305.77C453.782 305.725 453.722 305.717 453.677 305.755C453.654 305.777 453.639 305.807 453.639 305.837V305.822Z" fill="#0A1A2F"/>
<path d="M482.503 297.168L478.053 297.183C477.933 297.183 477.835 297.281 477.836 297.402L477.924 322.81C477.925 322.931 478.023 323.028 478.143 323.027L482.593 323.012C482.714 323.011 482.811 322.914 482.811 322.793L482.722 297.385C482.722 297.264 482.624 297.167 482.503 297.168Z" fill="#0A1A2F"/>
<path d="M496.984 323.045C495.653 323.045 494.902 323.045 494.729 323.029C494.623 323.029 494.548 322.939 494.548 322.842L494.518 301.485C494.518 301.387 494.443 301.312 494.345 301.312L486.475 301.327C486.324 301.327 486.197 301.199 486.197 301.041V297.486C486.189 297.335 486.309 297.208 486.46 297.2C489.888 297.178 493.398 297.147 496.984 297.125C500.57 297.155 504.073 297.177 507.501 297.208C507.651 297.208 507.779 297.335 507.779 297.486V301.049C507.771 301.207 507.643 301.335 507.493 301.335L499.623 301.32C499.532 301.32 499.45 301.395 499.45 301.492L499.405 322.842C499.405 322.947 499.322 323.029 499.224 323.029C499.051 323.037 498.307 323.045 496.976 323.045H496.984Z" fill="#0A1A2F"/>
<path d="M516.401 318.782H530.256C530.391 318.782 530.496 318.887 530.496 319.023V322.759C530.496 322.894 530.391 322.999 530.256 322.999H511.545C511.41 322.999 511.305 322.894 511.305 322.759V297.441C511.305 297.305 511.41 297.2 511.545 297.2H529.692C529.827 297.2 529.933 297.305 529.933 297.441V301.109C529.933 301.244 529.827 301.35 529.692 301.35H516.409C516.274 301.35 516.168 301.455 516.168 301.59V307.514C516.168 307.649 516.274 307.754 516.409 307.754H528.143C528.279 307.754 528.384 307.86 528.384 307.995V311.693C528.384 311.829 528.279 311.934 528.143 311.934H516.394C516.259 311.934 516.153 312.039 516.153 312.175V318.542C516.153 318.677 516.259 318.782 516.394 318.782H516.401Z" fill="#0A1A2F"/>
<path d="M623.53 322.744C623.507 322.879 623.425 322.954 623.282 322.962C621.778 323.015 620.29 323.03 618.824 323.007C618.659 323.007 618.508 322.902 618.441 322.751L616.163 317.354C616.103 317.211 615.953 317.113 615.795 317.113L603.662 317.128C603.526 317.128 603.406 317.211 603.346 317.331L600.978 322.676C600.88 322.894 600.67 323.03 600.429 323.037H596.129C596.009 323.045 595.919 322.954 595.919 322.834C595.919 322.804 595.919 322.774 595.934 322.744L607.075 297.553C607.172 297.328 607.398 297.185 607.638 297.185H611.555C611.863 297.185 612.141 297.358 612.262 297.636C619.636 314.054 623.365 322.323 623.44 322.451C623.507 322.579 623.53 322.676 623.515 322.751L623.53 322.744ZM604.97 312.926C604.94 312.994 604.97 313.077 605.037 313.107C605.052 313.114 605.075 313.122 605.098 313.122L614.194 313.137C614.269 313.137 614.329 313.077 614.329 313.001C614.329 312.979 614.329 312.964 614.314 312.941L609.781 302.492C609.751 302.425 609.668 302.395 609.6 302.425C609.57 302.44 609.548 302.462 609.533 302.492L604.962 312.926H604.97Z" fill="#0A1A2F"/>
<path d="M656.628 297.159L652.486 297.166C652.287 297.166 652.125 297.328 652.126 297.527L652.169 322.658C652.17 322.857 652.332 323.018 652.531 323.018L656.673 323.01C656.872 323.01 657.034 322.848 657.033 322.649L656.989 297.519C656.989 297.319 656.827 297.158 656.628 297.159Z" fill="#0A1A2F"/>
<path d="M663.694 297.178H681.946C682.096 297.178 682.224 297.305 682.224 297.456V301.034C682.224 301.184 682.096 301.312 681.946 301.312H668.588C668.438 301.312 668.31 301.44 668.31 301.59V308.581C668.31 308.732 668.438 308.859 668.588 308.859H680.488C680.638 308.859 680.766 308.987 680.766 309.138V312.663C680.766 312.814 680.638 312.941 680.488 312.941H668.603C668.453 312.941 668.325 313.069 668.325 313.22V322.736C668.325 322.887 668.197 323.015 668.047 323.015H663.694C663.544 323.015 663.416 322.887 663.416 322.736V297.456C663.416 297.305 663.544 297.178 663.694 297.178Z" fill="#0A1A2F"/>
<path d="M690.927 297.222L686.665 297.237C686.487 297.237 686.342 297.383 686.343 297.561L686.431 322.699C686.431 322.877 686.577 323.021 686.755 323.021L691.017 323.006C691.196 323.005 691.34 322.86 691.339 322.682L691.252 297.544C691.251 297.365 691.106 297.221 690.927 297.222Z" fill="#0A1A2F"/>
<path d="M738.604 297.241L734.394 297.248C734.212 297.249 734.064 297.397 734.064 297.58L734.108 322.672C734.108 322.855 734.256 323.003 734.439 323.003L738.649 322.995C738.832 322.995 738.979 322.847 738.979 322.664L738.935 297.571C738.935 297.388 738.787 297.241 738.604 297.241Z" fill="#0A1A2F"/>
<path d="M787.61 308.574C789.677 310.957 791.812 314.182 792.3 314.294C792.353 314.31 792.398 314.272 792.413 314.227C792.413 314.227 792.413 314.212 792.413 314.204L792.428 297.396C792.428 297.275 792.526 297.178 792.646 297.178H796.924C797.096 297.178 797.239 297.32 797.239 297.501L797.209 322.721C797.209 322.879 797.081 323.007 796.924 323.007H793.616C793.315 323.007 793.03 322.864 792.849 322.624C789.587 318.324 786.64 314.655 784.016 311.626C781.949 309.243 779.814 306.018 779.326 305.898C779.273 305.883 779.228 305.92 779.213 305.965C779.213 305.965 779.213 305.98 779.213 305.988L779.198 322.797C779.198 322.917 779.1 323.015 778.98 323.015H774.702C774.53 323.015 774.387 322.872 774.387 322.691L774.409 297.471C774.409 297.313 774.537 297.185 774.695 297.185H778.002C778.303 297.185 778.589 297.335 778.769 297.576C782.032 301.876 784.979 305.537 787.602 308.574H787.61Z" fill="#0A1A2F"/>
<path d="M829.775 297.223H834.48C834.623 297.223 834.751 297.305 834.811 297.441L842.81 316.437C842.87 316.572 843.028 316.64 843.163 316.58C843.223 316.55 843.276 316.505 843.306 316.444L851.665 297.2C851.665 297.2 851.68 297.178 851.695 297.178H856.318C856.423 297.178 856.506 297.26 856.506 297.366C856.506 297.381 856.506 297.396 856.506 297.411C856.401 297.907 856.213 298.441 855.95 299.012C854.74 301.635 852.695 306.161 849.823 312.596C849.598 313.092 849.455 313.415 849.395 313.565C848.5 315.595 847.162 318.685 845.38 322.842C845.343 322.939 845.245 323 845.14 323.007H840.848C840.675 323.007 840.524 322.887 840.479 322.714C840.336 322.082 840.186 321.609 840.043 321.293C836.503 313.55 833.022 305.612 829.609 297.486C829.572 297.396 829.609 297.29 829.699 297.253C829.722 297.245 829.744 297.238 829.775 297.238V297.223Z" fill="#0A1A2F"/>
<path d="M882.171 322.751C882.148 322.894 882.065 322.969 881.923 322.969C880.412 323.022 878.916 323.037 877.442 323.014C877.277 323.014 877.127 322.909 877.059 322.759L874.774 317.339C874.714 317.196 874.563 317.098 874.405 317.098L862.227 317.113C862.092 317.113 861.964 317.196 861.911 317.316L859.536 322.684C859.438 322.902 859.22 323.045 858.987 323.045H854.672C854.552 323.045 854.462 322.954 854.462 322.842C854.462 322.811 854.462 322.781 854.477 322.751L865.648 297.463C865.745 297.238 865.971 297.087 866.219 297.087H870.151C870.459 297.087 870.737 297.26 870.865 297.538C878.277 314.016 882.02 322.315 882.088 322.443C882.156 322.571 882.178 322.669 882.163 322.744L882.171 322.751ZM863.55 312.986C863.52 313.047 863.55 313.122 863.618 313.152C863.633 313.152 863.656 313.159 863.671 313.159L872.827 313.114C872.894 313.114 872.954 313.062 872.954 312.994C872.954 312.979 872.954 312.956 872.947 312.941L868.309 302.597C868.279 302.537 868.204 302.507 868.143 302.537C868.113 302.552 868.091 302.575 868.083 302.605L863.558 312.994L863.55 312.986Z" fill="#0A1A2F"/>
<path d="M910.353 297.185H905.993C905.852 297.185 905.737 297.299 905.737 297.441V322.736C905.737 322.878 905.852 322.992 905.993 322.992H910.353C910.494 322.992 910.609 322.878 910.609 322.736V297.441C910.609 297.299 910.494 297.185 910.353 297.185Z" fill="#0A1A2F"/>
<path d="M1031.38 319.098V322.661C1031.38 322.842 1031.24 322.992 1031.05 322.992H1013.81C1013.63 322.992 1013.47 322.842 1013.47 322.661V297.523C1013.47 297.343 1013.62 297.193 1013.81 297.193H1018.01C1018.19 297.193 1018.34 297.343 1018.34 297.523V318.444C1018.34 318.624 1018.48 318.775 1018.67 318.775H1031.05C1031.23 318.775 1031.38 318.925 1031.38 319.106V319.098Z" fill="#0A1A2F"/>
<path d="M1034.94 322.781V297.418C1034.94 297.298 1035.04 297.2 1035.16 297.2H1039.65C1039.77 297.2 1039.87 297.298 1039.87 297.418V318.572C1039.87 318.692 1039.97 318.79 1040.09 318.79H1052.8C1052.92 318.79 1053.02 318.887 1053.02 319.008V322.789C1053.02 322.909 1052.92 323.007 1052.8 323.007H1035.17C1035.05 323.007 1034.95 322.909 1034.95 322.789L1034.94 322.781Z" fill="#0A1A2F"/>
<path d="M1061.24 297.219L1056.75 297.227C1056.64 297.227 1056.55 297.318 1056.55 297.43L1056.59 322.809C1056.59 322.921 1056.68 323.012 1056.8 323.011L1061.28 323.004C1061.4 323.003 1061.49 322.912 1061.49 322.8L1061.44 297.422C1061.44 297.31 1061.35 297.219 1061.24 297.219Z" fill="#0A1A2F"/>
<path d="M1099.74 305.8L1099.84 322.676C1099.84 322.887 1099.68 323.06 1099.47 323.06L1095.18 323.097C1095.05 323.097 1094.93 322.992 1094.93 322.864L1094.96 297.335C1094.96 297.275 1095.02 297.223 1095.08 297.223L1098.58 297.117C1098.83 297.11 1099.08 297.223 1099.25 297.426L1112.57 314.009C1112.64 314.091 1112.75 314.099 1112.83 314.039C1112.88 314.001 1112.9 313.949 1112.9 313.896L1112.8 297.381C1112.8 297.275 1112.88 297.193 1112.99 297.193L1117.32 297.163C1117.57 297.163 1117.76 297.358 1117.76 297.606L1117.79 322.789C1117.79 322.909 1117.69 323.015 1117.57 323.015H1114.02C1113.85 323.015 1113.69 322.939 1113.58 322.804L1099.91 305.747C1099.87 305.702 1099.8 305.702 1099.77 305.732C1099.74 305.747 1099.73 305.777 1099.73 305.807L1099.74 305.8Z" fill="#0A1A2F"/>
<path d="M1155.26 311.926C1155.09 311.926 1154.95 312.069 1154.95 312.242V318.406C1154.95 318.594 1155.09 318.745 1155.28 318.745L1168.99 318.775C1169.15 318.775 1169.28 318.903 1169.28 319.06L1169.26 322.699C1169.26 322.834 1169.15 322.947 1169.02 322.947L1150.22 322.992C1150.14 322.992 1150.07 322.932 1150.07 322.849L1150.09 297.493C1150.09 297.335 1150.22 297.208 1150.39 297.208L1168.38 297.185C1168.56 297.185 1168.7 297.328 1168.7 297.501V300.966C1168.71 301.162 1168.56 301.32 1168.36 301.32L1155.14 301.357C1155.03 301.357 1154.95 301.44 1154.95 301.545V307.446C1154.95 307.604 1155.07 307.732 1155.23 307.732H1166.9C1167.05 307.732 1167.18 307.86 1167.18 308.017L1167.13 311.701C1167.13 311.814 1167.03 311.911 1166.92 311.911H1155.25L1155.26 311.926Z" fill="#0A1A2F"/>
</svg>
