<svg width="1171" height="390" viewBox="0 0 1171 390" fill="none" xmlns="http://www.w3.org/2000/svg">
<path fill-rule="evenodd" clip-rule="evenodd" d="M171 208C197.071 314 273.271 304 290.322 296.5C290.382 296.47 290.443 296.45 290.503 296.42C264.202 334.34 225.831 367.75 171 390C116.169 367.75 77.7986 334.34 51.4981 296.42C51.558 296.45 51.6179 296.47 51.6778 296.5C68.7284 304 144.93 314 171 208ZM213.28 312.46C200.91 321.33 186.88 329.27 171 336C155.12 329.27 141.089 321.33 128.719 312.46C119.569 316.57 111.759 318.84 107.099 319.88C124.069 333.67 144.199 345.74 167.98 355.31L171 356L174.02 355.31C197.8 345.74 217.931 333.67 234.901 319.88C230.241 318.84 222.431 316.57 213.28 312.46Z" fill="#0A1A2F"/>
<path fill-rule="evenodd" clip-rule="evenodd" d="M171 0C224.641 0.000191881 315.883 37 335.433 52.5C345.503 99.2399 347.414 177.92 316.003 250.38C272.792 303.78 195.541 265.74 203.091 184H240.691L171 77L101.309 184H138.909C146.459 265.74 69.2084 303.78 25.9976 250.38C-5.41301 177.92 -3.50364 99.24 6.56654 52.5C26.1169 37 117.359 0 171 0ZM171 24C147.72 24.12 117.449 31.9397 91.5486 40.9297C78.3484 45.5097 65.9877 50.4997 55.8575 55.1797C45.9574 59.7497 37.4974 64.3199 32.5973 68.1699L29.9068 70.29L29.1871 73.6201C21.647 108.3 19.5666 163.57 37.6169 217.74C39.847 224.43 42.3874 231.11 45.2675 237.74C50.4976 243.89 59.3582 249.81 73.3784 251.34C65.9782 238.5 60.1674 225.17 55.6974 211.74C39.5071 163.18 40.7475 113.37 47.0575 81.2305C50.6576 78.9305 56.3578 75.8799 63.8479 72.4199C73.3681 68.0299 85.1483 63.2701 97.8085 58.8701C123.189 50.0601 150.98 43.13 171 43C191.021 43.1301 218.811 50.0602 244.191 58.8701C256.851 63.2701 268.632 68.0299 278.152 72.4199C285.642 75.8799 291.342 78.9305 294.942 81.2305C301.252 113.37 302.493 163.18 286.302 211.74C281.832 225.17 276.021 238.5 268.621 251.34C282.641 249.81 291.502 243.89 296.732 237.74C299.612 231.11 302.153 224.43 304.383 217.74C322.433 163.57 320.353 108.3 312.813 73.6201L312.093 70.29L309.402 68.1699C304.502 64.3199 296.042 59.7496 286.142 55.1797C276.012 50.4997 263.651 45.5097 250.451 40.9297C224.551 31.9398 194.281 24.1201 171 24Z" fill="#0A1A2F"/>
<path d="M170.717 120.898C170.806 120.62 171.201 120.62 171.289 120.898L177.937 141.791C177.977 141.915 178.093 142 178.223 142H198.163C198.445 142 198.572 142.354 198.353 142.532L182.655 155.376C182.563 155.451 182.524 155.574 182.556 155.688L188.275 176.181C188.351 176.453 188.042 176.67 187.812 176.506L171.178 164.625C171.074 164.55 170.933 164.55 170.828 164.625L154.194 176.506C153.964 176.67 153.655 176.453 153.731 176.181L159.45 155.688C159.482 155.574 159.444 155.451 159.352 155.376L143.653 142.532C143.435 142.354 143.562 142 143.844 142H163.783C163.914 142 164.03 141.915 164.07 141.791L170.717 120.898Z" fill="#0A1A2F"/>
<path d="M612.713 103.101C613.021 103.101 613.276 103.356 613.276 103.664C612.442 144.341 615.178 184.588 611.728 223.159C603.902 271.706 564.827 287.508 519.791 287.838C459.112 289.44 414.128 268 414.361 201.194C414.557 170.561 413.925 137.365 414.632 103.071H463.637C464.862 132.689 463.622 166.554 464.096 202.863C464.096 207.005 464.321 209.891 464.75 211.508C466.516 223.069 473.605 233.932 483.475 239.434C500.367 248.666 535.435 249.087 551.056 235.202C563.151 224.107 564.805 210.207 564.309 194.045C564.219 162.059 564.196 131.839 564.241 103.371C564.219 102.544 612.42 103.401 612.713 103.101Z" fill="#0A1A2F"/>
<path d="M696.29 232.233C696.057 232.233 695.861 232.421 695.861 232.661C695.493 233.045 696.56 284.147 695.5 284.087C695.2 283.787 646.262 284.666 646.337 283.779C646.856 283.253 645.345 102.988 646.856 103.086C662.898 103.041 694.748 103.025 742.416 103.048C773.951 102.747 802.652 103.995 821.941 127.367C825.677 131.621 828.511 136.62 830.436 142.356C835.457 157.06 835.615 174.124 831.278 189.038C826.978 205.546 815.033 217.905 799.141 225.046C794.668 226.948 791.616 228.061 789.985 228.384C776.905 231.406 766.892 232.473 753.398 232.27C726.043 232.308 707.002 232.293 696.29 232.233ZM695.959 141.95C696.154 142.183 695.485 192.662 696.072 192.639L756.3 192.744C771.673 192.775 784.159 182.13 784.182 168.975C785.693 154.241 773.274 141.92 756.39 141.852C756.187 142.055 695.914 141.356 695.959 141.95Z" fill="#0A1A2F"/>
<path d="M861.204 103.101H909.826C909.826 103.101 909.465 283.516 909.826 283.771C909.909 284.704 861.505 283.764 861.204 284.087V103.101Z" fill="#0A1A2F"/>
<path d="M1170.96 283.546C1171.08 283.771 1170.9 284.065 1170.65 284.057H1116.18C1115.91 284.057 1115.65 283.899 1115.54 283.644C1112.57 277.164 1109.47 272.044 1106.32 264.941C1105.04 262.061 1102.68 257.017 1099.25 249.808C1099.07 249.425 1098.68 249.184 1098.25 249.184C1067.36 249.447 1033.97 248.981 999.515 249.372C998.004 249.447 997.35 250.169 996.974 251.379C996.14 254.386 994.178 257.724 993.29 259.566C992.967 260.415 989.186 268.316 981.954 283.268C981.706 283.771 981.203 284.087 980.639 284.087H928.544C926.762 283.358 1019.2 103.552 1019.95 103.071H1077.28C1078.95 103.168 1079.48 105.822 1080.12 106.739C1085.23 117.842 1094.45 134.613 1100.22 145.912C1105.43 156.594 1111.03 167.614 1116.37 177.477C1134.68 213.793 1152.01 247.117 1170.96 283.546ZM1079.41 210.613C1079.64 210.673 1079.87 210.41 1079.74 210.192C1077.17 205.246 1075.02 201.194 1073.3 198.037C1069 187.798 1063.07 177.74 1059.04 168.539C1056.55 162.893 1053.18 155.684 1048.93 146.904C1048.81 146.648 1048.5 146.543 1048.24 146.663C1041.34 159.886 1031.39 181.333 1024.11 196.315C1022.07 200.412 1020.22 205.539 1017.32 209.516C1017.16 209.711 1017.19 209.997 1017.38 210.162C1043.48 210.944 1063.33 209.839 1079.41 210.613Z" fill="#0A1A2F"/>
</svg>
