<svg width="342" height="390" viewBox="0 0 342 390" fill="none" xmlns="http://www.w3.org/2000/svg">
<path fill-rule="evenodd" clip-rule="evenodd" d="M171 208C197.071 314 273.271 304 290.322 296.5C290.382 296.47 290.443 296.45 290.503 296.42C264.202 334.34 225.831 367.75 171 390C116.169 367.75 77.7986 334.34 51.4981 296.42C51.558 296.45 51.6179 296.47 51.6778 296.5C68.7284 304 144.93 314 171 208ZM213.28 312.46C200.91 321.33 186.88 329.27 171 336C155.12 329.27 141.089 321.33 128.719 312.46C119.569 316.57 111.759 318.84 107.099 319.88C124.069 333.67 144.199 345.74 167.98 355.31L171 356L174.02 355.31C197.8 345.74 217.931 333.67 234.901 319.88C230.241 318.84 222.431 316.57 213.28 312.46Z" fill="#0A1A2F"/>
<path fill-rule="evenodd" clip-rule="evenodd" d="M171 0C224.641 0.000191881 315.883 37 335.433 52.5C345.503 99.2399 347.414 177.92 316.003 250.38C272.792 303.78 195.541 265.74 203.091 184H240.691L171 77L101.309 184H138.909C146.459 265.74 69.2084 303.78 25.9976 250.38C-5.41301 177.92 -3.50364 99.24 6.56654 52.5C26.1169 37 117.359 0 171 0ZM171 24C147.72 24.12 117.449 31.9397 91.5486 40.9297C78.3484 45.5097 65.9877 50.4997 55.8575 55.1797C45.9574 59.7497 37.4974 64.3199 32.5973 68.1699L29.9068 70.29L29.1871 73.6201C21.647 108.3 19.5666 163.57 37.6169 217.74C39.847 224.43 42.3874 231.11 45.2675 237.74C50.4976 243.89 59.3582 249.81 73.3784 251.34C65.9782 238.5 60.1674 225.17 55.6974 211.74C39.5071 163.18 40.7475 113.37 47.0575 81.2305C50.6576 78.9305 56.3578 75.8799 63.8479 72.4199C73.3681 68.0299 85.1483 63.2701 97.8085 58.8701C123.189 50.0601 150.98 43.13 171 43C191.021 43.1301 218.811 50.0602 244.191 58.8701C256.851 63.2701 268.632 68.0299 278.152 72.4199C285.642 75.8799 291.342 78.9305 294.942 81.2305C301.252 113.37 302.493 163.18 286.302 211.74C281.832 225.17 276.021 238.5 268.621 251.34C282.641 249.81 291.502 243.89 296.732 237.74C299.612 231.11 302.153 224.43 304.383 217.74C322.433 163.57 320.353 108.3 312.813 73.6201L312.093 70.29L309.402 68.1699C304.502 64.3199 296.042 59.7496 286.142 55.1797C276.012 50.4997 263.651 45.5097 250.451 40.9297C224.551 31.9398 194.281 24.1201 171 24Z" fill="#0A1A2F"/>
<path d="M170.717 120.898C170.806 120.62 171.201 120.62 171.289 120.898L177.937 141.791C177.977 141.915 178.093 142 178.223 142H198.163C198.445 142 198.572 142.354 198.353 142.532L182.655 155.376C182.563 155.451 182.524 155.574 182.556 155.688L188.275 176.181C188.351 176.453 188.042 176.67 187.812 176.506L171.178 164.625C171.074 164.55 170.933 164.55 170.828 164.625L154.194 176.506C153.964 176.67 153.655 176.453 153.731 176.181L159.45 155.688C159.482 155.574 159.444 155.451 159.352 155.376L143.653 142.532C143.435 142.354 143.562 142 143.844 142H163.783C163.914 142 164.03 141.915 164.07 141.791L170.717 120.898Z" fill="#0A1A2F"/>
</svg>
