<svg xmlns="http://www.w3.org/2000/svg" version="1.1" xmlns:xlink="http://www.w3.org/1999/xlink" width="382" height="436"><svg width="382" height="436" viewBox="0 0 382 436" fill="none" xmlns="http://www.w3.org/2000/svg">
<path d="M191 0C250.916 0 352.829 41.3642 374.667 58.6924C394.639 151.482 385.865 356.849 191 436C-3.86516 356.849 -12.6385 151.482 7.33304 58.6924C29.1715 41.3642 131.084 1.55266e-05 191 0Z" fill="white"></path>
<path fill-rule="evenodd" clip-rule="evenodd" d="M191 231C217.071 337 293.271 327 310.322 319.5C310.382 319.47 310.443 319.45 310.503 319.42C284.202 357.34 245.831 390.75 191 413C136.169 390.75 97.7986 357.34 71.4981 319.42C71.558 319.45 71.6179 319.47 71.6778 319.5C88.7284 327 164.93 337 191 231ZM233.28 335.46C220.91 344.33 206.88 352.27 191 359C175.12 352.27 161.089 344.33 148.719 335.46C139.569 339.57 131.759 341.84 127.099 342.88C144.069 356.67 164.199 368.74 187.98 378.31L191 379L194.02 378.31C217.8 368.74 237.931 356.67 254.901 342.88C250.241 341.84 242.431 339.57 233.28 335.46Z" fill="#0A1A2F"></path>
<path fill-rule="evenodd" clip-rule="evenodd" d="M191 23C244.641 23.0002 335.883 60 355.433 75.5C365.503 122.24 367.414 200.92 336.003 273.38C292.792 326.78 215.541 288.74 223.091 207H260.691L191 100L121.309 207H158.909C166.459 288.74 89.2084 326.78 45.9976 273.38C14.587 200.92 16.4964 122.24 26.5665 75.5C46.1169 60 137.359 23 191 23ZM191 47C167.72 47.12 137.449 54.9397 111.549 63.9297C98.3484 68.5097 85.9877 73.4997 75.8575 78.1797C65.9574 82.7497 57.4974 87.3199 52.5973 91.1699L49.9068 93.29L49.1871 96.6201C41.647 131.3 39.5666 186.57 57.6169 240.74C59.847 247.43 62.3874 254.11 65.2675 260.74C70.4976 266.89 79.3582 272.81 93.3784 274.34C85.9782 261.5 80.1674 248.17 75.6974 234.74C59.5071 186.18 60.7475 136.37 67.0575 104.23C70.6576 101.93 76.3578 98.8799 83.8479 95.4199C93.3681 91.0299 105.148 86.2701 117.809 81.8701C143.189 73.0601 170.98 66.13 191 66C211.021 66.1301 238.811 73.0602 264.191 81.8701C276.851 86.2701 288.632 91.0299 298.152 95.4199C305.642 98.8799 311.342 101.93 314.942 104.23C321.252 136.37 322.493 186.18 306.302 234.74C301.832 248.17 296.021 261.5 288.621 274.34C302.641 272.81 311.502 266.89 316.732 260.74C319.612 254.11 322.153 247.43 324.383 240.74C342.433 186.57 340.353 131.3 332.813 96.6201L332.093 93.29L329.402 91.1699C324.502 87.3199 316.042 82.7496 306.142 78.1797C296.012 73.4997 283.651 68.5097 270.451 63.9297C244.551 54.9398 214.281 47.1201 191 47Z" fill="#0A1A2F"></path>
<path d="M190.717 143.898C190.806 143.62 191.201 143.62 191.289 143.898L197.937 164.791C197.977 164.915 198.093 165 198.223 165H218.163C218.445 165 218.572 165.354 218.353 165.532L202.655 178.376C202.563 178.451 202.524 178.574 202.556 178.688L208.275 199.181C208.351 199.453 208.042 199.67 207.812 199.506L191.178 187.625C191.074 187.55 190.933 187.55 190.828 187.625L174.194 199.506C173.964 199.67 173.655 199.453 173.731 199.181L179.45 178.688C179.482 178.574 179.444 178.451 179.352 178.376L163.653 165.532C163.435 165.354 163.562 165 163.844 165H183.783C183.914 165 184.03 164.915 184.07 164.791L190.717 143.898Z" fill="#0A1A2F"></path>
</svg><style>@media (prefers-color-scheme: light) { :root { filter: none; } }
@media (prefers-color-scheme: dark) { :root { filter: none; } }
</style></svg>