<svg width="5722" height="390" viewBox="0 0 5722 390" fill="none" xmlns="http://www.w3.org/2000/svg">
<path fill-rule="evenodd" clip-rule="evenodd" d="M171 208C197.071 314 273.271 304 290.322 296.5C290.382 296.47 290.443 296.45 290.503 296.42C264.202 334.34 225.831 367.75 171 390C116.169 367.75 77.7986 334.34 51.4981 296.42C51.558 296.45 51.6179 296.47 51.6778 296.5C68.7284 304 144.93 314 171 208ZM213.28 312.46C200.91 321.33 186.88 329.27 171 336C155.12 329.27 141.089 321.33 128.719 312.46C119.569 316.57 111.759 318.84 107.099 319.88C124.069 333.67 144.199 345.74 167.98 355.31L171 356L174.02 355.31C197.8 345.74 217.931 333.67 234.901 319.88C230.241 318.84 222.431 316.57 213.28 312.46Z" fill="#0A1A2F"/>
<path fill-rule="evenodd" clip-rule="evenodd" d="M171 0C224.641 0.000191881 315.883 37 335.433 52.5C345.503 99.2399 347.414 177.92 316.003 250.38C272.792 303.78 195.541 265.74 203.091 184H240.691L171 77L101.309 184H138.909C146.459 265.74 69.2084 303.78 25.9976 250.38C-5.41301 177.92 -3.50364 99.24 6.56654 52.5C26.1169 37 117.359 0 171 0ZM171 24C147.72 24.12 117.449 31.9397 91.5486 40.9297C78.3484 45.5097 65.9877 50.4997 55.8575 55.1797C45.9574 59.7497 37.4974 64.3199 32.5973 68.1699L29.9068 70.29L29.1871 73.6201C21.647 108.3 19.5666 163.57 37.6169 217.74C39.847 224.43 42.3874 231.11 45.2675 237.74C50.4976 243.89 59.3582 249.81 73.3784 251.34C65.9782 238.5 60.1674 225.17 55.6974 211.74C39.5071 163.18 40.7475 113.37 47.0575 81.2305C50.6576 78.9305 56.3578 75.8799 63.8479 72.4199C73.3681 68.0299 85.1483 63.2701 97.8085 58.8701C123.189 50.0601 150.98 43.13 171 43C191.021 43.1301 218.811 50.0602 244.191 58.8701C256.851 63.2701 268.632 68.0299 278.152 72.4199C285.642 75.8799 291.342 78.9305 294.942 81.2305C301.252 113.37 302.493 163.18 286.302 211.74C281.832 225.17 276.021 238.5 268.621 251.34C282.641 249.81 291.502 243.89 296.732 237.74C299.612 231.11 302.153 224.43 304.383 217.74C322.433 163.57 320.353 108.3 312.813 73.6201L312.093 70.29L309.402 68.1699C304.502 64.3199 296.042 59.7496 286.142 55.1797C276.012 50.4997 263.651 45.5097 250.451 40.9297C224.551 31.9398 194.281 24.1201 171 24Z" fill="#0A1A2F"/>
<path d="M170.717 120.898C170.806 120.62 171.201 120.62 171.289 120.898L177.937 141.791C177.977 141.915 178.093 142 178.223 142H198.163C198.445 142 198.572 142.354 198.353 142.532L182.655 155.376C182.563 155.451 182.524 155.574 182.556 155.688L188.275 176.181C188.351 176.453 188.042 176.67 187.812 176.506L171.178 164.625C171.074 164.55 170.933 164.55 170.828 164.625L154.194 176.506C153.964 176.67 153.655 176.453 153.731 176.181L159.45 155.688C159.482 155.574 159.444 155.451 159.352 155.376L143.653 142.532C143.435 142.354 143.562 142 143.844 142H163.783C163.914 142 164.03 141.915 164.07 141.791L170.717 120.898Z" fill="#0A1A2F"/>
<path d="M3137.59 184.711C3143.43 132.885 3191.28 95.6537 3244.54 101.63C3297.81 107.606 3336.26 154.461 3330.41 206.288C3324.57 258.115 3276.72 295.346 3223.46 289.37C3170.19 283.394 3131.74 236.538 3137.59 184.711ZM3228.93 131.985C3194.62 134.365 3168.81 164.721 3171.26 199.784C3173.7 234.846 3203.49 261.288 3237.8 258.909C3272.1 256.529 3297.91 226.173 3295.47 191.11C3293.03 156.048 3263.23 129.606 3228.93 131.985Z" fill="#0A1A2F"/>
<path d="M3935.19 189.411C3938.46 137.312 3984.21 97.8142 4037.42 101.203C4090.62 104.591 4131.09 149.49 4127.81 201.589C4124.54 253.688 4078.79 293.186 4025.58 289.797C3972.38 286.409 3931.91 241.51 3935.19 189.411ZM4022.2 132.282C3988.28 137.047 3964.77 169.292 3969.63 204.183C3974.49 239.128 4005.98 263.536 4039.9 258.771C4073.82 254.006 4097.33 221.761 4092.47 186.87C4087.61 151.925 4056.12 127.517 4022.2 132.282Z" fill="#0A1A2F"/>
<path d="M1923.84 195.625C1924 253.62 1993.05 281.237 2031.12 238.644C2032.22 237.422 2034.07 237.316 2035.29 238.431L2054.29 255.532C2055.08 256.276 2055.24 257.497 2054.61 258.4C2033.02 288.832 1986.24 296.479 1952.77 284.795C1915.13 271.677 1890.11 237.263 1890 195.785C1889.89 154.307 1914.71 119.733 1952.3 106.403C1985.71 94.5062 2032.49 101.888 2054.29 132.213C2054.93 133.116 2054.77 134.338 2053.98 135.081L2035.08 152.289C2033.86 153.404 2032.01 153.298 2030.91 152.076C1992.58 109.749 1923.73 137.737 1923.84 195.732V195.625Z" fill="#0A1A2F"/>
<path d="M2427.78 195.636C2427.84 210.284 2431.38 222.694 2439.91 234.412C2462.67 265.57 2510.06 268.074 2536.42 238.673C2537.43 237.554 2539.12 237.448 2540.23 238.46L2558.76 255.131C2560.3 256.516 2560.4 258.859 2559.08 260.404C2559.08 260.457 2558.97 260.51 2558.92 260.564C2542.51 276.862 2524.46 287.035 2500.95 289.432C2450.07 294.598 2403.43 264.185 2394.01 211.935C2393.37 208.366 2393.05 202.987 2393 195.743C2393 188.499 2393.26 183.066 2393.9 179.551C2403.11 127.247 2449.6 96.5678 2500.47 101.521C2523.98 103.812 2542.09 113.878 2558.6 130.07C2560.09 131.508 2560.09 133.905 2558.6 135.343C2558.55 135.396 2558.5 135.45 2558.45 135.503L2539.97 152.227C2538.86 153.239 2537.22 153.133 2536.16 152.067C2509.69 122.773 2462.3 125.489 2439.7 156.755C2431.22 168.526 2427.73 180.989 2427.73 195.636H2427.78Z" fill="#0A1A2F"/>
<path d="M5556.19 254.622C5557.99 256.268 5558.2 259.081 5556.56 260.886C5556.56 260.886 5556.51 260.993 5556.46 260.993C5537.56 280.848 5514.23 290.51 5486.39 289.979C5460.73 289.501 5439.67 281.485 5423.21 265.983C5386.43 231.316 5379.5 169.202 5416.8 131.668C5427.97 120.413 5443.69 109.583 5458.66 105.336C5489.46 96.5764 5518.09 101.089 5544.6 118.874C5550.16 122.59 5554.39 126.625 5557.41 131.031C5558.41 132.464 5558.1 134.429 5556.77 135.544L5536.82 151.683C5535.98 152.373 5534.76 152.267 5533.97 151.523C5520.58 138.145 5505.12 131.615 5487.56 131.933C5457.5 132.571 5437.92 147.17 5428.82 175.679C5423.42 192.667 5426.44 215.761 5437.13 231.369C5453.79 255.631 5483.27 265.24 5510.84 254.994C5520.47 251.437 5528.25 245.756 5534.18 238.058C5534.86 237.156 5536.19 236.943 5537.14 237.687C5537.14 237.687 5537.25 237.74 5537.25 237.793L5556.09 254.675L5556.19 254.622Z" fill="#0A1A2F"/>
<path d="M1261 105.745C1261 105.319 1261.32 105 1261.75 105H1346.59C1398.17 105 1440 144.887 1440 194.08V198.92C1440 248.113 1398.17 288 1346.59 288H1261.75C1261.32 288 1261 287.681 1261 287.256V105.851V105.745ZM1295.44 137.016L1296.08 255.612C1296.08 256.729 1297.05 257.686 1298.17 257.686L1345.36 257.473C1378.24 257.314 1404.76 231.308 1404.6 199.398V192.219C1404.38 160.31 1377.55 134.569 1344.72 134.729L1297.53 134.942C1296.35 134.942 1295.44 135.899 1295.44 137.016Z" fill="#0A1A2F"/>
<path d="M1573.43 288H1542.15C1541.52 288 1541 287.463 1541 286.82V106.062C1541 104.882 1541.89 103.97 1543.05 103.916C1567.76 103.487 1591 103.165 1612.88 103.004C1631.09 102.897 1646.47 104.828 1661.58 114.593C1683.72 128.918 1692.95 150.594 1689.18 179.621C1685.87 205.321 1667.61 221.631 1643.95 229.786C1637.13 232.093 1626.74 233.381 1612.88 233.542C1600.61 233.703 1588.38 233.649 1576.21 233.435C1575.21 233.435 1574.37 234.24 1574.37 235.259V286.981C1574.37 287.517 1573.95 288 1573.37 288H1573.43ZM1574.95 134.069V202.262C1574.95 202.96 1575.47 203.496 1576.16 203.496H1621.33C1640.43 203.496 1655.91 188.366 1655.91 169.695V166.637C1655.91 147.965 1640.43 132.835 1621.33 132.835H1576.16C1575.47 132.835 1574.95 133.372 1574.95 134.069Z" fill="#0A1A2F"/>
<path d="M2739.05 287.096V105.904C2739.05 105.425 2739.48 105 2739.96 105H2767.69C2767.96 105 2768.23 105.159 2768.39 105.372L2864.45 224.554C2864.77 224.926 2865.36 224.979 2865.74 224.66C2865.95 224.5 2866.06 224.234 2866.06 223.969V105.957C2866.06 105.479 2866.48 105.053 2866.97 105.053H2900.09C2900.57 105.053 2901 105.479 2901 105.957V286.617C2901 287.096 2900.57 287.521 2900.09 287.521H2873C2872.74 287.521 2872.47 287.362 2872.31 287.149L2774.96 166.372C2774.64 166 2774.05 165.947 2773.68 166.266C2773.46 166.425 2773.36 166.691 2773.36 166.957V287.096C2773.36 287.574 2772.93 288 2772.45 288H2739.91C2739.43 288 2739 287.574 2739 287.096H2739.05Z" fill="#0A1A2F"/>
<path d="M3768.53 105C3793.91 105.16 3818.76 105.266 3843.03 105.426C3844.09 105.426 3845 106.33 3845 107.393V132.549C3845 133.665 3844.09 134.569 3843.03 134.569H3787.3C3786.66 134.569 3786.07 135.101 3786.07 135.793V286.564C3786.07 287.309 3785.49 287.894 3784.79 287.894C3783.57 287.947 3778.23 288 3768.85 288C3759.46 288 3754.13 288 3752.9 287.947C3752.15 287.947 3751.57 287.309 3751.57 286.617L3751.04 135.846C3751.04 135.154 3750.5 134.623 3749.81 134.623L3694.08 134.835C3693.01 134.835 3692.11 133.931 3692.11 132.814L3692 107.659C3692 106.595 3692.85 105.691 3693.92 105.691C3718.18 105.479 3743.04 105.213 3768.42 105H3768.53Z" fill="#0A1A2F"/>
<path d="M4227.39 207.316C4212.91 190.414 4197.91 167.665 4194.48 166.815C4194.12 166.709 4193.8 166.974 4193.69 167.293C4193.69 167.293 4193.69 167.4 4193.69 167.453V286.459C4193.69 287.309 4193.01 288 4192.17 288H4162.21C4161 288 4160 286.99 4160 285.768V107.232C4160 106.116 4160.89 105.213 4162 105.213H4185.22C4187.32 105.213 4189.33 106.223 4190.59 107.923C4213.49 138.326 4234.18 164.264 4252.61 185.684C4267.09 202.586 4282.09 225.388 4285.52 226.185C4285.88 226.291 4286.2 226.026 4286.31 225.707C4286.31 225.707 4286.31 225.6 4286.31 225.547V106.541C4286.31 105.691 4286.99 105 4287.83 105H4317.79C4319 105 4320 106.01 4320 107.232V285.768C4320 286.884 4319.1 287.787 4318 287.787H4294.78C4292.68 287.787 4290.67 286.777 4289.36 285.077C4266.46 254.674 4245.82 228.736 4227.39 207.263V207.316Z" fill="#0A1A2F"/>
<path d="M4605.97 286.085C4605.81 287.095 4605.23 287.626 4604.22 287.626C4593.56 287.998 4583.06 288.104 4572.72 287.892C4571.56 287.892 4570.5 287.148 4570.02 286.085L4554.01 247.828C4553.58 246.818 4552.52 246.127 4551.41 246.127H4465.67C4464.71 246.127 4463.86 246.712 4463.44 247.562L4446.68 285.394C4446 286.935 4444.46 287.892 4442.81 287.945H4412.48C4411.64 287.945 4411 287.307 4411 286.457C4411 286.244 4411 286.032 4411.11 285.819L4490.01 107.604C4490.69 106.01 4492.29 105 4494.04 105H4521.71C4523.89 105 4525.8 106.275 4526.7 108.241C4578.71 224.501 4604.96 283.056 4605.44 283.96C4605.92 284.863 4606.07 285.554 4605.97 286.085ZM4475.21 216.531C4475 217.009 4475.21 217.54 4475.69 217.7C4475.79 217.7 4475.9 217.753 4476.06 217.753L4539.85 217.859C4540.33 217.859 4540.75 217.487 4540.75 216.956C4540.75 216.85 4540.75 216.69 4540.7 216.584L4508.93 142.832C4508.72 142.354 4508.19 142.195 4507.72 142.407C4507.5 142.514 4507.4 142.673 4507.29 142.832L4475.26 216.478L4475.21 216.531Z" fill="#0A1A2F"/>
<path d="M5179 286.029C5178.84 287.041 5178.25 287.574 5177.24 287.574C5166.56 287.947 5155.98 288.053 5145.57 287.84C5144.39 287.84 5143.32 287.095 5142.84 286.029L5126.72 247.789C5126.29 246.777 5125.22 246.085 5124.1 246.085H5037.95C5036.99 246.085 5036.14 246.671 5035.71 247.576L5018.89 285.443C5018.19 286.988 5016.7 287.947 5014.99 288H4984.49C4983.64 288 4983 287.361 4983 286.509C4983 286.296 4983 286.083 4983.11 285.87L5062.31 107.61C5063 106.012 5064.6 105 5066.31 105H5094.14C5096.27 105 5098.25 106.278 5099.16 108.249C5151.44 224.461 5177.88 283.047 5178.36 283.899C5178.84 284.804 5179 285.497 5178.89 286.029H5179ZM5048.16 217.005C5047.99 217.484 5048.15 217.964 5048.64 218.123C5048.74 218.123 5048.85 218.177 5048.96 218.177L5113.15 217.644C5113.63 217.644 5114.06 217.271 5114.06 216.792C5114.06 216.685 5114.06 216.526 5114 216.419L5081.27 142.761C5081.05 142.335 5080.52 142.122 5080.09 142.335C5079.88 142.442 5079.72 142.601 5079.66 142.814L5048.21 217.058L5048.16 217.005Z" fill="#0A1A2F"/>
<path d="M532.851 259.678C566.53 259.572 578.296 235.283 578.242 206.178C578.242 186.705 577.972 153.949 577.54 107.858C577.54 106.323 578.781 105.053 580.347 105H611.057C612.137 105 613 105.847 613 106.905C612.946 130.083 612.892 165.591 612.892 213.375C612.892 232.531 607.279 249.147 596.053 263.223C580.347 282.909 557.732 289.894 532.959 290C508.239 290.053 485.571 283.173 469.757 263.594C458.423 249.571 452.702 232.955 452.648 213.851C452.432 166.067 452.216 130.559 452 107.381C452 106.323 452.863 105.476 453.943 105.476L484.599 105.317C486.165 105.317 487.46 106.535 487.46 108.069C487.46 108.069 487.46 108.069 487.46 108.122C487.244 154.213 487.19 186.969 487.244 206.443C487.352 235.548 499.226 259.784 532.905 259.731L532.851 259.678Z" fill="#0A1A2F"/>
<path d="M686.803 166.126L687.598 284.976C687.598 286.461 686.431 287.629 684.945 287.682L654.751 288C653.796 288 653 287.257 653 286.302L653.106 106.541C653.106 106.117 653.477 105.745 653.902 105.745L678.524 105.002C680.329 104.949 682.08 105.745 683.247 107.178L777.173 223.906C777.65 224.489 778.446 224.542 779.03 224.118C779.349 223.853 779.508 223.481 779.508 223.11L778.765 106.806C778.765 106.064 779.349 105.48 780.038 105.48L810.551 105.215C812.249 105.215 813.682 106.594 813.682 108.345L814 285.665C814 286.514 813.31 287.257 812.461 287.257H787.574C786.406 287.257 785.239 286.727 784.496 285.771L688.076 165.754C687.811 165.436 687.386 165.383 687.068 165.648C686.909 165.807 686.803 166.019 686.803 166.232V166.126Z" fill="#0A1A2F"/>
<path d="M890.659 104.901L859.35 105.01C858.503 105.013 857.819 105.702 857.822 106.549L858.446 285.309C858.449 286.156 859.138 286.84 859.985 286.837L891.294 286.728C892.141 286.725 892.826 286.036 892.823 285.189L892.199 106.429C892.196 105.582 891.506 104.898 890.659 104.901Z" fill="#0A1A2F"/>
<path d="M991.974 288C982.48 288 977.116 288 975.883 287.893C975.132 287.893 974.595 287.249 974.595 286.551L974.381 134.119C974.381 133.422 973.844 132.885 973.147 132.885L916.987 132.993C915.914 132.993 915.002 132.081 915.002 130.954V105.575C914.949 104.502 915.807 103.59 916.88 103.537C941.339 103.376 966.388 103.161 991.974 103C1017.56 103.215 1042.56 103.376 1067.02 103.59C1068.09 103.59 1069 104.502 1069 105.575V131.008C1068.95 132.134 1068.03 133.046 1066.96 133.046L1010.8 132.939C1010.16 132.939 1009.57 133.476 1009.57 134.173L1009.25 286.551C1009.25 287.302 1008.66 287.893 1007.96 287.893C1006.72 287.946 1001.41 288 991.921 288H991.974Z" fill="#0A1A2F"/>
<path d="M1128.59 258.087H1225.32C1226.27 258.087 1227 258.833 1227 259.793V286.294C1227 287.254 1226.27 288 1225.32 288H1094.68C1093.73 288 1093 287.254 1093 286.294V106.706C1093 105.746 1093.73 105 1094.68 105H1221.38C1222.33 105 1223.06 105.746 1223.06 106.706V132.727C1223.06 133.687 1222.33 134.434 1221.38 134.434H1128.64C1127.69 134.434 1126.96 135.18 1126.96 136.14V178.157C1126.96 179.117 1127.69 179.864 1128.64 179.864H1210.57C1211.52 179.864 1212.25 180.61 1212.25 181.57V207.804C1212.25 208.764 1211.52 209.511 1210.57 209.511H1128.53C1127.59 209.511 1126.85 210.257 1126.85 211.217V256.38C1126.85 257.34 1127.59 258.087 1128.53 258.087H1128.59Z" fill="#0A1A2F"/>
<path d="M1884 285.922C1883.84 286.879 1883.25 287.412 1882.24 287.465C1871.57 287.837 1861 287.944 1850.6 287.784C1849.42 287.784 1848.35 287.039 1847.87 285.975L1831.7 247.768C1831.28 246.757 1830.21 246.066 1829.09 246.066L1742.96 246.172C1742 246.172 1741.15 246.757 1740.72 247.609L1723.91 285.443C1723.22 286.986 1721.72 287.944 1720.02 287.997H1689.49C1688.64 288.05 1688 287.412 1688 286.56C1688 286.347 1688 286.134 1688.11 285.922L1767.19 107.608C1767.88 106.011 1769.48 105 1771.19 105H1798.99C1801.18 105 1803.16 106.224 1804.01 108.193C1856.36 224.408 1882.83 282.942 1883.36 283.846C1883.84 284.751 1884 285.443 1883.89 285.975L1884 285.922ZM1752.25 216.426C1752.03 216.905 1752.25 217.491 1752.73 217.704C1752.84 217.757 1753 217.81 1753.16 217.81L1817.72 217.916C1818.26 217.916 1818.68 217.491 1818.68 216.959C1818.68 216.799 1818.68 216.693 1818.58 216.533L1786.4 142.568C1786.19 142.089 1785.6 141.876 1785.12 142.089C1784.91 142.195 1784.75 142.355 1784.64 142.568L1752.2 216.426H1752.25Z" fill="#0A1A2F"/>
<path d="M2115.71 104.838L2086.57 104.888C2085.16 104.891 2084.03 106.029 2084.03 107.431L2084.34 284.235C2084.34 285.637 2085.48 286.771 2086.88 286.769L2116.02 286.718C2117.43 286.716 2118.56 285.577 2118.56 284.175L2118.25 107.372C2118.25 105.97 2117.11 104.835 2115.71 104.838Z" fill="#0A1A2F"/>
<path d="M2165.94 105H2293.06C2294.11 105 2295 105.905 2295 106.97V132.314C2295 133.379 2294.11 134.284 2293.06 134.284H2200.02C2198.98 134.284 2198.09 135.189 2198.09 136.254V185.771C2198.09 186.836 2198.98 187.741 2200.02 187.741H2282.91C2283.95 187.741 2284.84 188.647 2284.84 189.711V214.683C2284.84 215.748 2283.95 216.653 2282.91 216.653H2200.13C2199.08 216.653 2198.19 217.558 2198.19 218.623V286.03C2198.19 287.095 2197.3 288 2196.25 288H2165.94C2164.89 288 2164 287.095 2164 286.03V106.97C2164 105.905 2164.89 105 2165.94 105Z" fill="#0A1A2F"/>
<path d="M2357.02 105.283L2327.03 105.387C2325.78 105.392 2324.76 106.413 2324.77 107.669L2325.38 284.525C2325.39 285.781 2326.41 286.795 2327.67 286.791L2357.65 286.686C2358.91 286.682 2359.92 285.66 2359.92 284.404L2359.3 107.549C2359.3 106.293 2358.27 105.278 2357.02 105.283Z" fill="#0A1A2F"/>
<path d="M2692.45 105.418L2662.83 105.47C2661.54 105.472 2660.5 106.516 2660.51 107.801L2660.82 284.34C2660.82 285.625 2661.86 286.665 2663.15 286.662L2692.76 286.611C2694.05 286.609 2695.09 285.565 2695.09 284.28L2694.78 107.741C2694.78 106.456 2693.73 105.416 2692.45 105.418Z" fill="#0A1A2F"/>
<path d="M3037.31 185.718C3052.06 202.596 3067.29 225.438 3070.77 226.237C3071.15 226.343 3071.47 226.077 3071.58 225.758C3071.58 225.758 3071.58 225.651 3071.58 225.598L3071.68 106.544C3071.68 105.692 3072.38 105 3073.24 105H3103.75C3104.98 105 3106 106.012 3106 107.289L3105.79 285.923C3105.79 287.042 3104.87 287.947 3103.75 287.947H3080.16C3078.01 287.947 3075.97 286.935 3074.69 285.231C3051.42 254.776 3030.4 228.793 3011.68 207.335C2996.94 190.457 2981.71 167.615 2978.23 166.763C2977.85 166.657 2977.53 166.923 2977.42 167.242C2977.42 167.242 2977.42 167.349 2977.42 167.402L2977.32 286.456C2977.32 287.308 2976.62 288 2975.76 288H2945.25C2944.02 288 2943 286.988 2943 285.711L2943.16 107.076C2943.16 105.958 2944.07 105.053 2945.2 105.053H2968.79C2970.93 105.053 2972.97 106.118 2974.26 107.822C2997.53 138.278 3018.55 164.207 3037.26 185.718H3037.31Z" fill="#0A1A2F"/>
<path d="M3334.26 105.32H3367.31C3368.32 105.32 3369.21 105.905 3369.64 106.864L3425.81 241.451C3426.23 242.41 3427.34 242.889 3428.29 242.463C3428.71 242.25 3429.08 241.931 3429.29 241.504L3488 105.16C3488 105.16 3488.11 105 3488.21 105H3520.68C3521.42 105 3522 105.586 3522 106.331C3522 106.438 3522 106.545 3522 106.651C3521.26 110.166 3519.94 113.948 3518.09 117.995C3509.59 136.583 3495.23 168.645 3475.07 214.235C3473.48 217.751 3472.48 220.041 3472.06 221.106C3465.77 235.486 3456.38 257.376 3443.86 286.828C3443.6 287.521 3442.91 287.947 3442.17 288H3412.03C3410.82 288 3409.76 287.148 3409.44 285.923C3408.44 281.449 3407.38 278.094 3406.38 275.857C3381.51 220.999 3357.07 164.757 3333.1 107.184C3332.84 106.545 3333.1 105.799 3333.74 105.532C3333.89 105.479 3334.05 105.426 3334.26 105.426V105.32Z" fill="#0A1A2F"/>
<path d="M3704 285.91C3703.84 286.928 3703.25 287.464 3702.24 287.464C3691.49 287.839 3680.86 287.946 3670.38 287.786C3669.21 287.786 3668.14 287.036 3667.66 285.964L3651.41 247.335C3650.98 246.317 3649.91 245.621 3648.79 245.621L3562.21 245.728C3561.25 245.728 3560.34 246.317 3559.96 247.174L3543.08 285.428C3542.38 286.982 3540.83 288 3539.17 288H3508.5C3507.64 288 3507 287.357 3507 286.553C3507 286.339 3507 286.125 3507.11 285.91L3586.53 105.679C3587.22 104.072 3588.83 103 3590.59 103H3618.54C3620.73 103 3622.71 104.232 3623.62 106.214C3676.32 223.654 3702.93 282.803 3703.41 283.714C3703.89 284.625 3704.05 285.321 3703.95 285.857L3704 285.91ZM3571.62 216.314C3571.4 216.743 3571.62 217.279 3572.1 217.493C3572.2 217.493 3572.36 217.547 3572.47 217.547L3637.57 217.225C3638.05 217.225 3638.48 216.85 3638.48 216.368C3638.48 216.261 3638.48 216.1 3638.42 215.993L3605.45 142.272C3605.23 141.843 3604.7 141.629 3604.27 141.843C3604.06 141.95 3603.9 142.111 3603.84 142.325L3571.67 216.368L3571.62 216.314Z" fill="#0A1A2F"/>
<path d="M3901.22 105H3870.78C3869.8 105 3869 105.803 3869 106.793V284.207C3869 285.197 3869.8 286 3870.78 286H3901.22C3902.2 286 3903 285.197 3903 284.207V106.793C3903 105.803 3902.2 105 3901.22 105Z" fill="#0A1A2F"/>
<path d="M4752 258.681V283.679C4752 284.945 4750.99 286 4749.67 286H4628.33C4627.06 286 4626 284.945 4626 283.679V107.321C4626 106.055 4627.01 105 4628.33 105H4657.9C4659.17 105 4660.22 106.055 4660.22 107.321V254.093C4660.22 255.359 4661.23 256.413 4662.55 256.413H4749.67C4750.94 256.413 4752 257.468 4752 258.734V258.681Z" fill="#0A1A2F"/>
<path d="M4777 286.401V106.546C4777 105.693 4777.69 105 4778.54 105H4810.33C4811.18 105 4811.88 105.693 4811.88 106.546V256.549C4811.88 257.402 4812.57 258.095 4813.42 258.095H4903.46C4904.31 258.095 4905 258.788 4905 259.641V286.454C4905 287.307 4904.31 288 4903.46 288H4778.6C4777.75 288 4777.05 287.307 4777.05 286.454L4777 286.401Z" fill="#0A1A2F"/>
<path d="M4962.33 105.265L4930.76 105.32C4929.97 105.321 4929.33 105.962 4929.33 106.75L4929.64 285.299C4929.65 286.088 4930.29 286.726 4931.07 286.724L4962.65 286.669C4963.44 286.668 4964.08 286.027 4964.07 285.239L4963.76 106.69C4963.76 105.901 4963.12 105.263 4962.33 105.265Z" fill="#0A1A2F"/>
<path d="M5233.05 164.829L5233.8 285.002C5233.8 286.501 5232.63 287.732 5231.13 287.732L5200.76 288C5199.8 288 5199 287.251 5199 286.341L5199.21 104.555C5199.21 104.127 5199.59 103.752 5200.01 103.752L5224.85 103.003C5226.66 102.949 5228.42 103.752 5229.59 105.197L5324.02 223.283C5324.5 223.872 5325.3 223.925 5325.88 223.497C5326.2 223.23 5326.36 222.855 5326.36 222.48L5325.67 104.876C5325.67 104.127 5326.26 103.538 5327 103.538L5357.7 103.324C5359.45 103.324 5360.84 104.715 5360.84 106.482L5361 285.805C5361 286.662 5360.31 287.411 5359.46 287.411H5334.3C5333.13 287.411 5331.96 286.876 5331.21 285.912L5234.28 164.454C5234.01 164.133 5233.53 164.133 5233.26 164.347C5233.11 164.454 5233 164.668 5233 164.882L5233.05 164.829Z" fill="#0A1A2F"/>
<path d="M5623.46 208.391C5622.24 208.391 5621.29 209.393 5621.29 210.605V253.839C5621.29 255.157 5622.3 256.211 5623.62 256.211L5719.99 256.422C5721.1 256.422 5722 257.318 5722 258.426L5721.89 283.944C5721.89 284.893 5721.1 285.684 5720.15 285.684L5588.06 286C5587.48 286 5587 285.578 5587 284.998L5587.16 107.162C5587.16 106.054 5588.06 105.158 5589.22 105.158L5715.71 105C5716.93 105 5717.93 106.002 5717.93 107.214V131.52C5717.98 132.891 5716.93 133.998 5715.55 133.998L5622.61 134.262C5621.87 134.262 5621.29 134.842 5621.29 135.58V176.968C5621.29 178.075 5622.14 178.971 5623.25 178.971H5705.3C5706.36 178.971 5707.26 179.867 5707.26 180.975L5706.89 206.809C5706.89 207.6 5706.2 208.285 5705.41 208.285H5623.41L5623.46 208.391Z" fill="#0A1A2F"/>
</svg>
